# xmcd
#
# Track frame offsets: 
#        150
#        10571
#        18651
#        28138
#        38475
#        48889
#        56955
#        67508
#        79698
#        89568
#        98491
#        107066
#        117403
#        128269
#        136154
#        145007
#        151234
#        160045
#        169442
#        177703
#        187127
#        198676
#        208407
#
# Disc length: 2933 seconds
#
# Revision: 0
# Processed by: cddbd v1.5.2PL0 Copyright (c) Steve Scherf et al.
# Submitted via: ExactAudioCopyFreeDBPlugin 1.0
#
DISCID=380b7317
DTITLE=Various Artist - Jukebox At The Last Chance Saloon
DYEAR=2010
DGENRE=Country
TTITLE0=Eddie Eddings - Country Guitar
TTITLE1=Allen Shelton - Bending The Strings
TTITLE2=Jackie Phelps - Guitar Cannonball
TTITLE3=Billy Byrd - Teenage Blues
TTITLE4=Al Petty with the Rainbow Riders - Steel Guitar Special
TTITLE5=Buddy Dee - Country Rockin' And Flyin'
TTITLE6=Arthur 'Guitar' Boogie Smith - Boogie Battle
TTITLE7=Bill Wimberly - Missouri Drag
TTITLE8=Jackie Phelps - Alabam
TTITLE9=Jackson and Buddy Emmons - Fort Worth Drag Shot
TTITLE10=Herbie Remington - Station Break
TTITLE11=The Musical Aires - Skip Along Guitar
TTITLE12=Hardrock Gunter - Memphis
TTITLE13=Buck Ryan - Nervous Breakdown
TTITLE14=Joe Maphis - Fire On The Strings
TTITLE15=Buzz Busby - Banjo Whiz
TTITLE16=Leon McAuliffe and his Cimarron Boys - Boogie On Strings
TTITLE17=Jackie Phelps - Ham and Biscuits
TTITLE18=Thumbs Carlille - Thumbs Guitar Boogie
TTITLE19=The Stanley Brothers - Fling Ding
TTITLE20=Ernest V Stoneman and the Stoneman Family - Orange Blossom Br
TTITLE20=eakdown
TTITLE21=Link Davis - Waltz Of The Jambalaya
TTITLE22=Jackie Phelps - Tennessee Strings
EXTD=
EXTT0=
EXTT1=
EXTT2=
EXTT3=
EXTT4=
EXTT5=
EXTT6=
EXTT7=
EXTT8=
EXTT9=
EXTT10=
EXTT11=
EXTT12=
EXTT13=
EXTT14=
EXTT15=
EXTT16=
EXTT17=
EXTT18=
EXTT19=
EXTT20=
EXTT21=
EXTT22=
PLAYORDER=
